<?xml version="1.0" encoding="utf-8"?>
<!-- Generator: Adobe Illustrator 22.0.0, SVG Export Plug-In . SVG Version: 6.00 Build 0)  -->
<svg version="1.1" id="Layer_1" xmlns="http://www.w3.org/2000/svg" xmlns:xlink="http://www.w3.org/1999/xlink" x="0px" y="0px"
	 viewBox="0 0 298 296.25" enable-background="new 0 0 298 296.25" xml:space="preserve">
<g>
	<path d="M-0.051,196.483c13.359-8.759,26.762-17.45,40.068-26.289c43.848-29.125,87.687-58.266,131.435-87.542
		c3.131-2.095,5.227-2.177,8.302-0.018c8.547,6.002,17.35,11.639,26.632,17.805c-47.307,31.741-94.139,63.162-140.883,94.525
		c-0.026,1.76,1.397,1.954,2.271,2.535c26.638,17.704,53.295,35.379,79.971,53.025c1.403,0.928,2.577,2.592,4.804,1.08
		c12.385-8.412,24.85-16.707,37.886-25.442c-9.818-6.482-19.168-12.655-28.968-19.125c12.016-8.095,23.595-15.896,35.174-23.698
		c11.743-7.912,23.488-15.822,35.225-23.741c1.652-1.115,2.96-2.175,5.269-0.657c19.473,12.795,39.054,25.425,58.657,38.141
		c-0.773,2.113-2.687,2.617-4.118,3.577c-46.758,31.369-93.541,62.7-140.316,94.044c-0.82,0.549-1.575,1.196-2.36,1.797
		c-0.333,0-0.667,0-1,0c-3.05-1.326-5.848-3.073-8.62-4.906C94.452,261.867,49.312,232.461,4.499,202.56
		C2.393,201.155-1.072,200.389-0.051,196.483z"/>
	<path d="M297.702,99.388c-18.482,12.166-37.006,24.268-55.438,36.51c-38.695,25.701-77.372,51.429-115.949,77.306
		c-3.193,2.142-5.215,1.977-8.239-0.142c-8.549-5.992-17.369-11.595-26.661-17.734c47.493-31.864,94.412-63.343,141.729-95.089
		c-22.048-14.617-43.542-28.865-65.034-43.116c-6.106-4.048-12.231-8.067-18.292-12.181c-1.792-1.216-3.201-1.746-5.316-0.299
		c-12.074,8.26-24.265,16.35-37.105,24.959c9.764,6.434,19.095,12.582,28.962,19.083c-13.244,8.935-26.007,17.551-38.776,26.159
		c-10.492,7.073-21.006,14.114-31.473,21.223c-1.893,1.286-3.373,2.078-5.761,0.509c-19.063-12.523-38.236-24.878-57.363-37.304
		c-0.385-0.25-0.616-0.737-1.094-1.333c15.132-10.158,30.167-20.27,45.221-30.353c32.786-21.958,65.585-43.899,98.364-65.867
		C146.398,1.1,147.661,0.806,148-0.5c0.667,0,1.333,0,2,0c6.256,2.798,11.817,6.784,17.465,10.556
		c37.931,25.338,76.305,50.002,114.199,75.395c4.561,3.056,9.414,5.681,13.81,8.981C297.009,95.583,299.452,96.631,297.702,99.388z"
		/>
	<path d="M296-0.5c-0.024,12.314-0.145,24.629-0.002,36.941c0.033,2.854-0.905,4.525-3.246,6.053
		c-8.218,5.367-16.312,10.923-24.434,16.435c-1.675,1.137-3.037,2.216-5.287,0.651c-9.265-6.445-18.674-12.683-28.615-19.392
		c9.27-6.146,18.127-11.894,26.854-17.834C272.497,14.712,284.24,7.831,295-0.5C295.333-0.5,295.667-0.5,296-0.5z"/>
	<path d="M0,296.5c-0.026-12.471-0.064-24.942-0.062-37.413c0-1.267-0.417-2.712,0.974-3.634c1.136,0.904,1.505,2.208,1.508,3.527
		c0.034,12.19,0.765,24.389-0.398,36.565C2.006,295.863,1.999,296.181,2,296.5C1.333,296.5,0.667,296.5,0,296.5z"/>
	<path d="M2.022,295.545c-2.007-1.284-1.056-3.301-1.069-4.957c-0.089-11.711-0.044-23.423-0.041-35.135
		c9.072-6.165,18.134-12.345,27.228-18.477c1.436-0.968,2.733-2.415,4.864-0.951c9.431,6.479,18.94,12.845,29.028,19.663
		C41.714,269.182,21.868,282.363,2.022,295.545z"/>
</g>
</svg>
