<?xml version="1.0" encoding="utf-8"?>
<!-- Generator: Adobe Illustrator 22.0.0, SVG Export Plug-In . SVG Version: 6.00 Build 0)  -->
<svg version="1.1" id="Layer_3" xmlns="http://www.w3.org/2000/svg" xmlns:xlink="http://www.w3.org/1999/xlink" x="0px" y="0px"
	 viewBox="0 0 341.833 342" enable-background="new 0 0 341.833 342" xml:space="preserve">
<path fill="#010101" d="M276.517-0.023H-2.167c0,0,2.177,235.139,2.177,283.038S65.327,341.8,65.327,341.8h276.506
	c0,0,0-237.316,0-283.038C341.833,13.04,276.517-0.023,276.517-0.023z M156.77,296.078h-19.595v-89.266h19.595V296.078z
	 M198.137,296.078h-28.304V176.331h28.304V296.078z M266.804,192.049c-9.18,11.216-21.028,18.727-34.461,23.886
	c-2.403,0.923-5.068,2.28-6.542-0.981c-1.153-2.55,1.339-3.826,2.957-5.038c5.839-4.374,11.013-9.378,15.644-15.03
	c12.652-15.444,12.641-36.72-3.717-51.457c-18.351-16.532-40.445-25.242-64.207-30.002c-18.933-3.793-38.118-4.194-57.415-2.96
	c-6.133,0.392-8.974,3.053-11.211,8.129c-12.223,27.743-10.057,55.035,2.24,82.068c1.198,2.633,2.603,5.176,3.992,7.717
	c1.052,1.925,2.572,4.104,0.644,5.91c-2.664,2.496-4.61-0.19-6.307-1.83c-15.39-14.865-24.587-32.962-27.855-54.073
	c-2.079-13.431-1.322-26.742,2.543-41.48c-9.229,0.679-16.49,3.908-23.977,6.164c-2.273,0.685-4.505,1.032-5.397-1.643
	c-0.662-1.986,1.065-3.169,2.649-4.099c0.313-0.184,0.611-0.432,0.95-0.526c22.174-6.172,35.625-23.395,51.691-38.252
	c33.495-30.975,97.351-26.109,127.769,7.45c2.08,2.295,7.37,4.804,3.436,8.623c-3.058,2.969-5.639-1.657-8.055-3.363
	c-30.473-21.523-73.026-20.868-103.168,1.705c1.44,1.959,2.98,1.475,5.335,1.323c35.261-2.267,69.492,2.103,101.657,17.671
	c11.495,5.564,21.983,12.7,30.317,22.59C281.523,152.596,281.759,173.775,266.804,192.049z"/>
</svg>
