<?xml version="1.0" encoding="utf-8"?>
<!-- Generator: Adobe Illustrator 22.0.0, SVG Export Plug-In . SVG Version: 6.00 Build 0)  -->
<svg version="1.1" id="Layer_1" xmlns="http://www.w3.org/2000/svg" xmlns:xlink="http://www.w3.org/1999/xlink" x="0px" y="0px"
	 viewBox="0 0 477.667 409.333" enable-background="new 0 0 477.667 409.333" xml:space="preserve">
<g>
	<g>
		<path d="M170.067,408.492c-0.002,0-0.005,0-0.007,0c-44.03-0.031-88.06-0.032-132.09-0.033l-27.019-0.001
			c-0.341,0-0.684-0.018-1.166-0.05l-0.668-0.041l-9.409-0.515l6.724-8.855c0.682-0.904,1.298-1.721,1.93-2.525l23.907-30.485
			c37.49-47.804,74.979-95.608,112.442-143.435c2.237-2.854,4.95-4.185,8.539-4.185c0.005,0,0.009,0,0.014,0
			c34.66,0.044,69.318,0.05,103.977,0.057c17.534,0.004,35.068,0.008,52.603,0.016c0.028-0.004,0.115-0.015,0.203-0.024
			c1.055-0.107,3.845-0.404,6.169,1.864l1.544,1.507l-0.037,2.157c-0.049,2.835-1.598,4.68-2.43,5.671
			c-0.099,0.118-0.198,0.234-0.291,0.354c-8.381,10.741-16.794,21.454-25.207,32.168c-4.589,5.844-9.178,11.687-13.761,17.534
			c-13.038,16.634-26.087,33.258-39.143,49.877c-0.746,0.949-1.482,1.905-2.219,2.862c-1.624,2.107-3.302,4.287-5.085,6.398
			l-0.13,0.176c-0.391,0.533-1.131,1.542-2.384,2.295l-7.311,9.259c-6.18,7.823-12.359,15.646-18.525,23.481
			c-8.69,11.042-16.644,21.192-24.314,31.033C175.118,407.366,172.875,408.492,170.067,408.492z M19.51,398.458l18.46,0.001
			c43.795,0.001,87.589,0.002,131.384,0.033c7.582-9.726,15.443-19.759,24.022-30.658c6.169-7.839,12.353-15.667,18.536-23.496
			l9.274-11.743l0.652-0.111c0.037-0.046,0.074-0.091,0.112-0.136c1.632-1.932,3.169-3.928,4.796-6.04
			c0.756-0.982,1.513-1.964,2.278-2.938c13.054-16.616,26.1-33.237,39.135-49.868c4.586-5.85,9.176-11.695,13.767-17.541
			c7.2-9.169,14.4-18.338,21.58-27.523c-15.425-0.006-30.848-0.009-46.271-0.013c-34.662-0.007-69.324-0.014-103.986-0.057
			c-0.198-0.035-0.312,0.012-0.379,0.021c-0.054,0.052-0.15,0.151-0.291,0.331c-37.463,47.827-74.954,95.633-112.444,143.438
			L19.51,398.458z"/>
	</g>
	<g>
		<path d="M325.142,192.15c-0.172,0-0.346-0.004-0.524-0.013c-1.989-0.101-3.987-0.097-6.104-0.092
			c-0.905,0.002-1.809,0.004-2.71-0.002l-2.9-0.021l-1.422-2.528c-0.89-1.582-1.775-3.166-2.661-4.75
			c-1.919-3.435-3.904-6.987-5.896-10.438c-11.67-20.229-23.35-40.453-35.028-60.676l-20.199-34.98
			c-0.311-0.536-0.597-1.093-0.88-1.652l-1.794-3.454l11.517-14.558c7.928-10.022,15.856-20.045,23.79-30.064
			c2.383-3.01,4.771-6.016,7.157-9.022c4.136-5.207,8.271-10.414,12.383-15.638c2.007-2.548,4.477-3.787,7.552-3.787
			c0.002,0,0.005,0,0.007,0c38.949,0.038,77.896,0.043,116.843,0.049l44.628,0.008c0.875-0.076,3.141-0.232,5.262,1.601l3.621,3.131
			l-6.806,8.602c-2.602,3.289-5.199,6.575-7.805,9.856l-19.225,24.212c-37.177,46.823-74.354,93.646-111.509,140.487
			C331.693,189.362,329.482,192.15,325.142,192.15z M319.823,182.043c1.588,0,3.209,0.013,4.845,0.085
			c37.136-46.817,74.29-93.613,111.448-140.411l19.224-24.212c1.844-2.322,3.685-4.647,5.525-6.974l-36.596-0.007
			c-38.854-0.005-77.709-0.011-116.563-0.048c-4.114,5.226-8.251,10.434-12.387,15.643c-2.385,3.002-4.77,6.005-7.149,9.011
			c-7.933,10.018-15.86,20.039-23.787,30.06l-7.463,9.434l19.636,34.005c11.681,20.225,23.36,40.45,35.031,60.68
			c2.025,3.51,4.027,7.093,5.963,10.558c0.406,0.726,0.812,1.452,1.219,2.178C319.118,182.043,319.47,182.043,319.823,182.043z"/>
	</g>
	<g>
		<path d="M226.352,340.224c7.812-10.414,15.598-20.848,23.441-31.237c22.054-29.215,44.131-58.411,66.201-87.613
			c0.318-0.42,0.661-0.82,0.993-1.229c18.264,31.375,36.534,62.747,54.789,94.127c17.858,30.697,35.703,61.403,53.551,92.106
			c0.48,0.825,0.934,1.666,1.635,2.921c-1.059,0-1.776,0-2.494,0c-51.89,0-103.779-0.007-155.669,0.034
			c-1.623,0.001-2.61-0.395-3.497-1.931C252.362,384.983,239.348,362.609,226.352,340.224z"/>
	</g>
	<g>
		<path d="M328.501,192.037c-0.985,0.038-1.969,0.108-2.954,0.109c-51.802,0.005-103.604-0.006-155.405,0.045
			c-2.09,0.002-3.344-0.505-4.459-2.441C129.838,127.53,93.923,65.35,58.02,3.163c-0.441-0.764-0.852-1.546-1.339-2.431
			c0.906-0.604,1.81-0.339,2.637-0.339c52.071-0.015,104.142-0.002,156.214-0.057c1.861-0.002,2.845,0.583,3.764,2.182
			c13.266,23.085,26.6,46.13,39.925,69.181c0.491,0.849,1.047,1.66,1.573,2.489c1.226,0.453,1.607,1.624,2.177,2.615
			c12.368,21.535,24.836,43.011,37.246,64.522c9.229,15.997,18.497,31.972,27.7,47.985
			C328.395,190.14,329.084,190.961,328.501,192.037z"/>
	</g>
</g>
</svg>
