<?xml version="1.0" encoding="utf-8"?>
<!-- Generator: Adobe Illustrator 22.0.0, SVG Export Plug-In . SVG Version: 6.00 Build 0)  -->
<svg version="1.1" id="Layer_1" xmlns="http://www.w3.org/2000/svg" xmlns:xlink="http://www.w3.org/1999/xlink" x="0px" y="0px"
	 viewBox="0 0 500 500" enable-background="new 0 0 500 500" xml:space="preserve">
<g>
	<path d="M374.42,128c-41.453,41.404-83.012,82.912-124.386,124.237C208.767,211.029,167.199,169.52,125.62,128
		C208.531,128,291.589,128,374.42,128z"/>
	<path d="M0,252.823c41.364-41.32,82.898-82.811,124.506-124.375c0,83.086,0,166.174,0,248.739
		C83.217,335.945,41.636,294.412,0,252.823z"/>
	<path d="M500,253.327c-41.287,41.249-82.84,82.765-124.391,124.278c0-82.924,0-165.971,0-248.57
		C416.945,170.338,458.515,211.875,500,253.327z"/>
	<path d="M250.43,254.1c41.146,41.097,82.684,82.586,124.319,124.171c-83.092,0-166.135,0-248.584,0
		C167.388,337.079,208.951,295.548,250.43,254.1z"/>
</g>
</svg>
