<?xml version="1.0" encoding="utf-8"?>
<!-- Generator: Adobe Illustrator 22.0.0, SVG Export Plug-In . SVG Version: 6.00 Build 0)  -->
<svg version="1.1" id="Layer_1" xmlns="http://www.w3.org/2000/svg" xmlns:xlink="http://www.w3.org/1999/xlink" x="0px" y="0px"
	 viewBox="0 0 500 500" enable-background="new 0 0 500 500" xml:space="preserve">
<g>
	<path d="M0,468.75c0-145.833,0-291.667,0-437.5c0.504-0.858,1.299-1.662,1.468-2.581C4.164,13.954,13.742,6.013,27.437,2.047
		C29.561,1.432,31.647,0.686,33.75,0c145,0,290,0,435,0c1.058,0.54,2.062,1.355,3.184,1.578
		c13.003,2.589,20.868,10.763,25.096,22.916c1.065,3.059,1.984,6.169,2.97,9.256c0,145.417,0,290.833,0,436.25
		c-0.493,1.083-1.178,2.12-1.451,3.255c-2.96,12.298-10.919,19.856-22.541,24.006c-2.435,0.87-4.84,1.823-7.258,2.738
		c-146.25,0-292.5,0-438.75,0c-0.681-0.418-1.314-1.071-2.05-1.219c-14.319-2.894-22.169-12.318-26.172-25.709
		C1.334,471.587,0.6,470.189,0,468.75z M141.022,174.626c-3.311,0-5.567-0.016-7.823,0.003
		c-15.556,0.127-30.273,13.447-30.417,28.946c-0.347,37.27-0.084,74.547,0.097,111.82c0.034,7.093,3.325,9.877,10.689,9.956
		c6.871,0.073,13.743,0.019,20.615,0.017c12.206-0.004,14.253-1.957,14.281-14.031c0.091-38.732,0.135-77.464,0.198-116.196
		c0.005-2.915,0.111-5.834-0.001-8.745c-0.131-3.382,1.13-4.921,4.737-4.764c5.196,0.226,10.428,0.339,15.612-0.001
		c14.565-0.954,27.918,9.366,27.57,27.371c-0.645,33.304-0.111,66.632-0.052,99.949c0.004,2.496-0.036,5.011,0.233,7.485
		c0.636,5.847,3.828,8.976,9.9,8.937c7.704-0.049,15.409,0.004,23.114-0.009c10.036-0.017,12.834-2.822,12.85-13.077
		c0.057-37.899,0.154-75.798,0.016-113.697c-0.017-4.706-0.759-9.595-2.175-14.081c-7.373-23.35-25.448-35.105-47.297-42.211
		c-11.185-3.638-22.754-4.794-34.323-1.385c-11.209,3.303-17.282,11.155-17.801,22.848
		C140.898,167.051,141.022,170.354,141.022,174.626z M358.654,325.281c3.682,0,5.961,0.018,8.24-0.003
		c15.564-0.14,30.022-13.483,30.197-29.136c0.415-37.066,0.298-74.138,0.236-111.207c-0.012-7.228-3.313-10.26-10.392-10.344
		c-8.329-0.099-16.661-0.092-24.99-0.003c-7.103,0.076-10.22,3.03-10.516,10.264c-0.247,6.03-0.081,12.077-0.073,18.116
		c0.051,36.029,0.021,72.058,0.26,108.085c0.036,5.415-1.034,8.211-7.179,7.426c-4.098-0.524-8.344-0.403-12.478-0.045
		c-15.798,1.368-29.125-9.476-28.659-28.182c0.824-33.094,0.318-66.22,0.35-99.333c0.002-2.495,0.058-5.018-0.27-7.48
		c-0.765-5.745-3.874-8.966-9.993-8.891c-7.496,0.092-14.994,0.012-22.492,0.018c-10.891,0.008-13.635,2.706-13.63,13.576
		c0.017,37.486-0.006,74.973,0.182,112.458c0.024,4.72,0.776,9.546,1.935,14.135c8.219,32.515,53.606,52.131,81.266,44.303
		c10.422-2.949,16.889-9.612,17.943-20.67C358.98,334.296,358.654,330.158,358.654,325.281z"/>
	<path d="M235.271,253.122c0,19.365-0.166,38.732,0.103,58.094c0.079,5.662-1.59,7.85-7.452,7.36
		c-5.997-0.501-12.093-0.451-18.099-0.013c-5.536,0.404-6.003-2.491-5.988-6.819c0.118-33.941-0.428-67.893,0.326-101.818
		c0.455-20.481-13.995-37.063-35.728-35.361c-5.173,0.405-10.419,0.242-15.604-0.083c-1.385-0.087-3.538-1.503-3.87-2.712
		c-3.662-13.353,3.569-23.949,17.627-24.981c22.271-1.633,41.304,6.07,56.798,22.003c7.988,8.214,11.869,18.317,11.749,29.985
		c-0.186,18.114-0.049,36.231-0.049,54.346C235.147,253.122,235.209,253.122,235.271,253.122z"/>
	<path d="M141.007,182.404c0,2.353-0.002,4.405,0,6.456c0.035,40.769-0.022,81.539,0.216,122.307
		c0.033,5.564-1.274,7.914-7.244,7.413c-6.197-0.52-12.475-0.266-18.709-0.064c-3.695,0.12-5.197-1.103-5.183-4.97
		c0.132-37.025-0.07-74.052,0.283-111.074C110.494,189.588,125.102,180.077,141.007,182.404z"/>
	<path d="M264.914,245.644c0-18.949,0.186-37.9-0.112-56.845c-0.091-5.79,1.809-7.84,7.529-7.263
		c4.329,0.437,8.737,0.06,13.11,0.091c11.211,0.081,10.553-1.401,10.566,10.262c0.037,32.9,0.055,65.8,0.098,98.7
		c0.029,22.147,12.653,34.685,34.893,34.691c4.789,0.001,9.611,0.348,14.359-0.092c5.238-0.485,6.248,1.895,6.257,6.497
		c0.031,14.912-5.82,21.298-20.86,21.848c-20.196,0.739-37.557-6.351-52.137-20.02c-9.367-8.781-14.068-19.809-13.924-32.899
		c0.202-18.322,0.051-36.648,0.051-54.972C264.801,245.644,264.858,245.644,264.914,245.644z"/>
	<path d="M359.205,318.367c-0.13-2.781-0.308-4.821-0.307-6.861c0.02-40.822,0.145-81.645-0.005-122.466
		c-0.02-5.48,1.152-8.063,7.238-7.53c5.994,0.525,12.076,0.283,18.108,0.059c3.971-0.148,5.577,1.185,5.569,5.332
		c-0.072,36.656,0.094,73.313-0.027,109.969c-0.033,10.136-11.133,20.807-21.708,21.471
		C365.388,318.51,362.685,318.367,359.205,318.367z"/>
</g>
</svg>
