<?xml version="1.0" encoding="utf-8"?>
<!-- Generator: Adobe Illustrator 22.0.0, SVG Export Plug-In . SVG Version: 6.00 Build 0)  -->
<svg version="1.1" id="Layer_1" xmlns="http://www.w3.org/2000/svg" xmlns:xlink="http://www.w3.org/1999/xlink" x="0px" y="0px"
	 viewBox="0 0 472.667 414.667" enable-background="new 0 0 472.667 414.667" xml:space="preserve">
<g>
	<g>
		<path d="M126.858,256.267c-1.341-1.806-2.335-3.822-3.451-5.761C81.969,178.492,40.545,106.469-0.902,34.46
			c-1.535-2.668-2.65-5.463-3.321-8.451c-0.12-0.702-0.586-1.305-0.58-2.042c-0.067-0.484,0.168-1.016-0.225-1.45
			c0-1.016,0-2.031,0-3.047c0.393-0.433,0.158-0.964,0.226-1.448c0.035-0.729,0.291-1.436,0.217-2.177
			C-3.256,8.296,0.85,2.607,7.155-1.575c3.245-2.153,6.792-3.473,10.742-3.539c0.511,0,1.02-0.001,1.532,0
			c58.228,0,116.452-0.001,174.669,0c0.242-0.002,0.491-0.003,0.734-0.002c0.913,0.143,1.243,0.899,1.643,1.586
			c13.208,22.721,26.285,45.518,39.501,68.235c0.472,0.811,0.979,1.62,0.933,2.621c-1.4,3.434-3.499,6.491-5.345,9.677
			c-16.344,28.213-32.715,56.411-49.03,84.641c-4.35,7.528-8.694,15.059-13.09,22.561c-5.005,8.304-9.753,16.758-14.622,25.141
			c-7.704,13.263-15.351,26.56-23.052,39.826c-1.017,1.752-2.006,3.52-3.021,5.273C128.304,255.208,128.036,256.232,126.858,256.267
			z"/>
		<path fill="#FFFFFF" d="M124.397,261.34l-1.554-2.093c-1.19-1.602-2.086-3.223-2.954-4.79c-0.27-0.487-0.539-0.976-0.817-1.458
			l-47.895-83.244C45.71,125.486,20.242,81.218-5.235,36.954c-1.797-3.124-3.097-6.432-3.863-9.834l-0.038-0.095
			c-0.189-0.47-0.51-1.262-0.625-2.285l-0.268-0.295V17.54l0.274-0.302c0.04-0.364,0.093-0.679,0.137-0.931
			c0.011-0.064,0.023-0.129,0.034-0.193l-0.045-0.457l0.119-0.678c1.521-8.639,6.198-15.61,13.9-20.72
			c4.255-2.823,8.771-4.294,13.422-4.372l0.589-0.001l1.041,0l58.214,0l116.441,0c0.215-0.002,0.488-0.001,0.754-0.002l0.379,0.001
			l0.375,0.059c3.206,0.502,4.58,2.933,5.097,3.848l0.093,0.164c6.42,11.043,12.807,22.103,19.194,33.162
			c6.757,11.698,13.514,23.396,20.307,35.074l0.067,0.116c0.617,1.056,1.65,2.823,1.539,5.249l-0.04,0.861l-0.325,0.798
			c-1.182,2.897-2.721,5.434-4.209,7.886c-0.485,0.8-0.971,1.601-1.44,2.409l-15.924,27.475
			c-11.042,19.049-22.085,38.098-33.103,57.162l-1.336,2.312c-3.842,6.651-7.816,13.528-11.77,20.275
			c-3.408,5.655-6.734,11.443-9.95,17.041c-1.55,2.697-3.1,5.394-4.662,8.083c-3.956,6.811-7.896,13.629-11.836,20.447
			c-3.734,6.462-7.468,12.924-11.215,19.379c-0.519,0.894-1.031,1.792-1.542,2.69c-0.49,0.86-0.98,1.721-1.477,2.578l-0.102,0.195
			c-1.355,2.657-3.364,4.042-5.971,4.118L124.397,261.34z M0.674,24.997c0.554,2.428,1.457,4.709,2.758,6.97
			c25.477,44.264,50.946,88.533,76.415,132.802l47.357,82.311c0.081-0.14,0.161-0.278,0.242-0.418
			c3.744-6.448,7.475-12.904,11.206-19.36c3.944-6.825,7.888-13.65,11.847-20.466c1.554-2.676,3.096-5.36,4.639-8.043
			c3.242-5.642,6.594-11.476,10.024-17.167c3.906-6.667,7.872-13.531,11.707-20.169l1.336-2.312
			c11.02-19.068,22.065-38.121,33.11-57.174l15.922-27.472c0.503-0.868,1.023-1.726,1.543-2.583c1.01-1.665,1.979-3.261,2.772-4.868
			c-6.765-11.63-13.493-23.278-20.221-34.927c-6.208-10.75-12.417-21.5-18.654-32.232l-174.78,0
			c-2.666,0.045-5.303,0.93-7.978,2.705c-5.26,3.489-8.368,7.957-9.491,13.647c-0.01,0.719-0.113,1.318-0.188,1.757
			c-0.017,0.097-0.036,0.194-0.048,0.291c0.026,0.473,0.043,1.286-0.219,2.215v0.979c0.226,0.795,0.246,1.499,0.231,1.965
			C0.351,23.817,0.548,24.351,0.674,24.997z M232.027,67.882L232.027,67.882L232.027,67.882z M-9.566,15.994L-9.566,15.994
			L-9.566,15.994z"/>
	</g>
	<g>
		<path d="M236.633,67.238c-1.767-3.735-4.017-7.2-6.074-10.771C220.62,39.217,210.624,22,200.674,4.756
			c-1.843-3.194-3.853-6.295-5.447-9.63c0.814-0.476,1.704-0.229,2.553-0.229c85.267-0.013,170.535-0.013,255.799-0.013
			c0.509,0,1.021,0,1.529,0c8.516,0.525,14.535,5.133,19.152,11.894c1.848,2.706,3.202,5.673,3.181,9.075
			c0.089,0.623-0.209,1.292,0.224,1.875c0,2.176,0,4.353,0,6.529c-0.482,0.512-0.002,1.231-0.379,1.765
			c-0.319,2.709-1.322,5.174-2.672,7.518c-16.455,28.58-32.906,57.162-49.36,85.742c-12.115,21.043-24.231,42.085-36.352,63.124
			c-0.394,0.685-0.69,1.439-1.294,1.99c-0.936,0.683-2.017,0.736-3.117,0.736c-25.752,0.002-51.503,0.008-77.255-0.006
			c-0.653,0-1.306-0.013-1.944-0.144c-1.304-0.272-1.784-1.392-2.358-2.382c-7.952-13.744-15.924-27.475-23.859-41.229
			c-8.369-14.507-16.803-28.976-25.16-43.491c-5.462-9.487-10.971-18.947-16.449-28.425
			C237.065,68.759,236.731,68.045,236.633,67.238z"/>
		<path fill="#FFFFFF" d="M345.26,190.135c-12.676,0-25.35-0.002-38.026-0.009c-0.844,0-1.84-0.019-2.946-0.246
			c-3.398-0.709-4.832-3.264-5.521-4.492l-0.158-0.279l-8.636-14.916c-5.081-8.771-10.163-17.543-15.229-26.324
			c-3.809-6.603-7.632-13.197-11.454-19.792c-4.577-7.896-9.154-15.793-13.708-23.703c-3.303-5.736-6.623-11.463-9.942-17.189
			c-2.169-3.742-4.338-7.483-6.503-11.228c-0.464-0.807-0.997-1.85-1.297-3.148c-1.106-2.253-2.412-4.442-3.788-6.749
			c-0.614-1.03-1.228-2.059-1.826-3.098c-5.494-9.535-11.006-19.061-16.518-28.586c-4.458-7.705-8.917-15.411-13.366-23.121
			c-0.515-0.893-1.043-1.777-1.572-2.662c-1.386-2.321-2.818-4.722-4.056-7.311l-1.983-4.15l3.97-2.322
			c1.948-1.14,3.794-1.004,4.789-0.932c0.098,0.007,0.196,0.017,0.293,0.019c85.261-0.013,170.53-0.013,255.794-0.013l1.837,0.009
			c9.26,0.571,16.989,5.304,22.973,14.065c2.688,3.935,4.016,7.75,4.052,11.652c0.005,0.061,0.009,0.12,0.011,0.178l0.214,0.288
			v10.165l-0.324,0.344c-0.043,0.242-0.104,0.497-0.189,0.761c-0.443,2.87-1.495,5.72-3.204,8.689l-49.36,85.742
			c-12.115,21.043-24.23,42.086-36.353,63.125c-0.066,0.115-0.127,0.233-0.189,0.351c-0.385,0.729-0.967,1.833-2.066,2.836
			l-0.424,0.346c-2.325,1.696-4.851,1.696-6.063,1.696l-13.633,0.001C362.326,190.134,353.792,190.135,345.26,190.135z
			 M307.278,180.126c21.193,0.012,42.387,0.009,63.579,0.007l13.588-0.001c0.041-0.075,0.083-0.148,0.125-0.222
			c12.12-21.038,24.235-42.08,36.351-63.122l49.36-85.742c1.183-2.054,1.83-3.836,2.039-5.609l0.16-1.277
			c0.034-0.289,0.092-0.604,0.185-0.935v-4.524c-0.293-1.05-0.251-1.959-0.218-2.452l-0.008-0.056l0.002-0.37
			c0.012-1.922-0.723-3.9-2.311-6.225c-4.236-6.204-9.064-9.293-15.186-9.714h-1.366c-83.317,0-166.645,0-249.965,0.012
			c0.468,0.785,0.934,1.57,1.391,2.361c4.447,7.708,8.903,15.409,13.36,23.111c5.515,9.531,11.029,19.062,16.527,28.603
			c0.573,0.995,1.161,1.98,1.749,2.967c1.547,2.592,3.146,5.273,4.512,8.163l0.347,0.731l0.087,0.72
			c0.022,0.055,0.08,0.178,0.214,0.412c2.157,3.731,4.324,7.469,6.491,11.207c3.325,5.735,6.649,11.471,9.957,17.216
			c4.549,7.902,9.121,15.79,13.693,23.677c3.826,6.601,7.652,13.202,11.465,19.81c5.062,8.776,10.141,17.542,15.22,26.309
			L307.278,180.126z"/>
	</g>
	<g>
		<path d="M240.905,419.525c-0.288,0.002-0.575,0.004-0.863,0.006c-0.288-0.011-0.576-0.022-0.863-0.034
			c-1.616,0.003-3.231,0.007-4.847,0.01c-0.29,0.009-0.581,0.018-0.871,0.027c-0.432-0.01-0.863-0.02-1.295-0.029
			c-7.013-1.34-12.714-4.8-16.808-10.678c-1.528-2.194-2.753-4.601-4.1-6.921c-27.667-47.651-55.332-95.303-82.992-142.958
			c-0.506-0.872-0.94-1.786-1.408-2.681c2.019-2.57,3.358-5.551,5.004-8.344c4.732-8.027,9.389-16.099,14.048-24.17
			c4.081-7.071,8.097-14.179,12.191-21.242c3.584-6.184,7.236-12.328,10.858-18.49c1.064-0.259,2.143-0.306,3.235-0.305
			c42.786,0.009,85.571,0.005,128.357,0.014c1.294,0,2.622-0.181,3.848,0.448c0.926,0.252,1.874,0.139,2.811,0.139
			c25.86,0.007,51.719,0.004,77.579,0.008c0.94,0,1.881,0.046,2.821,0.071c-0.551,1.428-1.429,2.679-2.188,3.993
			c-42.1,72.855-84.199,145.711-126.327,218.55c-3.623,6.264-9.094,10.216-16.075,12.083
			C242.32,419.211,241.61,419.359,240.905,419.525z"/>
		<path fill="#FFFFFF" d="M233.48,424.536l-1.838-0.041l-0.415-0.079c-8.5-1.624-15.219-5.907-19.973-12.731
			c-1.227-1.763-2.237-3.567-3.214-5.313c-0.366-0.653-0.731-1.307-1.107-1.953c-27.667-47.652-55.333-95.305-82.992-142.96
			c-0.392-0.675-0.748-1.371-1.102-2.068c-0.136-0.27-0.273-0.539-0.413-0.807l-1.498-2.864l1.997-2.542
			c1.129-1.437,2.069-3.164,3.063-4.993c0.511-0.939,1.022-1.879,1.565-2.8c4.606-7.812,9.222-15.81,13.687-23.543l0.339-0.588
			c1.845-3.195,3.676-6.399,5.507-9.603c2.222-3.887,4.444-7.773,6.689-11.646c2.491-4.299,5.016-8.58,7.541-12.86l4.405-7.481
			l2.057-0.5c1.627-0.396,3.118-0.48,4.421-0.447c21.793,0.005,43.589,0.006,65.386,0.007l62.968,0.007
			c0.193,0,0.388-0.005,0.583-0.01c1.176-0.032,2.874-0.073,4.696,0.629c0.142-0.005,0.38-0.012,0.57-0.017
			c0.27-0.008,0.54-0.015,0.809-0.015c15.518,0.004,31.032,0.005,46.548,0.006l31.032,0.002c0.699,0,1.4,0.022,2.102,0.046
			l7.938,0.214l-2.555,6.612c-0.566,1.466-1.307,2.681-1.96,3.753c-0.19,0.312-0.38,0.623-0.562,0.939l-0.948,1.64
			c-41.784,72.309-83.568,144.619-125.381,216.913c-4.222,7.3-10.651,12.147-19.11,14.41c-0.541,0.146-1.096,0.273-1.649,0.399
			l-1.16,0.27l-1.546,0.011l-0.873-0.035L233.48,424.536z M232.712,414.516l0.728,0.017l0.883-0.025l4.954-0.01l0.848,0.033
			l0.322-0.03c0.426-0.097,0.853-0.192,1.274-0.306c5.895-1.577,10.159-4.768,13.046-9.759
			c41.465-71.692,82.903-143.403,124.34-215.111l-25.35-0.002c-15.516-0.001-31.031-0.001-46.548-0.006
			c-0.173,0-0.348,0.006-0.522,0.011c-0.919,0.026-2.178,0.062-3.601-0.325l-0.504-0.138l-0.297-0.152
			c-0.208-0.016-0.601-0.005-0.896,0.003c-0.28,0.007-0.56,0.014-0.838,0.014l-62.968-0.007c-21.797-0.001-43.593-0.002-65.39-0.007
			c-0.065,0.001-0.13,0-0.197,0l-2.067,3.508c-2.512,4.258-5.023,8.517-7.502,12.794c-2.235,3.856-4.447,7.726-6.659,11.595
			c-1.838,3.215-3.676,6.431-5.528,9.639l-0.339,0.588c-4.476,7.754-9.104,15.771-13.732,23.622
			c-0.483,0.82-0.938,1.659-1.394,2.498c-0.655,1.205-1.323,2.433-2.082,3.655c27.626,47.598,55.255,95.188,82.889,142.78
			c0.402,0.692,0.794,1.393,1.186,2.093c0.898,1.605,1.747,3.122,2.693,4.481C222.642,410.537,226.979,413.335,232.712,414.516z
			 M302.376,188.723L302.376,188.723L302.376,188.723z"/>
	</g>
</g>
</svg>
